<mxfile host="65bd71144e">
    <diagram name="第 1 页" id="4a3K_V4WVQqfOLZNZAwq">
        <mxGraphModel dx="793" dy="516" grid="1" gridSize="10" guides="1" tooltips="1" connect="1" arrows="1" fold="1" page="1" pageScale="1" pageWidth="827" pageHeight="1169" math="0" shadow="0">
            <root>
                <mxCell id="0"/>
                <mxCell id="1" parent="0"/>
                <mxCell id="RuSEpNv-biS-WwoFlSjT-27" value="" style="group" parent="1" vertex="1" connectable="0">
                    <mxGeometry x="282.9999999999999" y="229.99999999999977" width="247.0000000000001" height="190.00000000000023" as="geometry"/>
                </mxCell>
                <mxCell id="RuSEpNv-biS-WwoFlSjT-22" value="35" style="ellipse;whiteSpace=wrap;html=1;fontFamily=Times New Roman;fontSize=19;container=0;" parent="RuSEpNv-biS-WwoFlSjT-27" vertex="1">
                    <mxGeometry x="207.0000000000001" y="150.00000000000023" width="40" height="40" as="geometry"/>
                </mxCell>
                <mxCell id="RuSEpNv-biS-WwoFlSjT-26" style="edgeStyle=none;shape=connector;rounded=0;orthogonalLoop=1;jettySize=auto;html=1;exitX=1;exitY=1;exitDx=0;exitDy=0;labelBackgroundColor=default;strokeColor=default;align=center;verticalAlign=middle;fontFamily=Helvetica;fontSize=11;fontColor=default;endArrow=none;endFill=0;" parent="RuSEpNv-biS-WwoFlSjT-27" source="RuSEpNv-biS-WwoFlSjT-15" target="RuSEpNv-biS-WwoFlSjT-22" edge="1">
                    <mxGeometry relative="1" as="geometry"/>
                </mxCell>
                <mxCell id="RuSEpNv-biS-WwoFlSjT-3" value="18" style="ellipse;whiteSpace=wrap;html=1;fontFamily=Times New Roman;fontSize=19;container=0;" parent="RuSEpNv-biS-WwoFlSjT-27" vertex="1">
                    <mxGeometry x="90" width="40" height="40" as="geometry"/>
                </mxCell>
                <mxCell id="RuSEpNv-biS-WwoFlSjT-4" value="12" style="ellipse;whiteSpace=wrap;html=1;fontFamily=Times New Roman;fontSize=19;container=0;" parent="RuSEpNv-biS-WwoFlSjT-27" vertex="1">
                    <mxGeometry x="30" y="50" width="40" height="40" as="geometry"/>
                </mxCell>
                <mxCell id="RuSEpNv-biS-WwoFlSjT-5" style="edgeStyle=none;html=1;fontFamily=Times New Roman;fontSize=19;endArrow=none;endFill=0;rounded=0;" parent="RuSEpNv-biS-WwoFlSjT-27" source="RuSEpNv-biS-WwoFlSjT-3" target="RuSEpNv-biS-WwoFlSjT-4" edge="1">
                    <mxGeometry relative="1" as="geometry"/>
                </mxCell>
                <mxCell id="RuSEpNv-biS-WwoFlSjT-6" value="29" style="ellipse;whiteSpace=wrap;html=1;fontFamily=Times New Roman;fontSize=19;container=0;" parent="RuSEpNv-biS-WwoFlSjT-27" vertex="1">
                    <mxGeometry x="150" y="50" width="40" height="40" as="geometry"/>
                </mxCell>
                <mxCell id="RuSEpNv-biS-WwoFlSjT-7" style="edgeStyle=none;html=1;fontFamily=Times New Roman;fontSize=19;endArrow=none;endFill=0;rounded=0;" parent="RuSEpNv-biS-WwoFlSjT-27" source="RuSEpNv-biS-WwoFlSjT-3" target="RuSEpNv-biS-WwoFlSjT-6" edge="1">
                    <mxGeometry relative="1" as="geometry"/>
                </mxCell>
                <mxCell id="RuSEpNv-biS-WwoFlSjT-8" value="6" style="ellipse;whiteSpace=wrap;html=1;fontFamily=Times New Roman;fontSize=19;container=0;" parent="RuSEpNv-biS-WwoFlSjT-27" vertex="1">
                    <mxGeometry y="100" width="40" height="40" as="geometry"/>
                </mxCell>
                <mxCell id="RuSEpNv-biS-WwoFlSjT-9" style="edgeStyle=none;html=1;fontFamily=Times New Roman;fontSize=19;endArrow=none;endFill=0;rounded=0;" parent="RuSEpNv-biS-WwoFlSjT-27" source="RuSEpNv-biS-WwoFlSjT-4" target="RuSEpNv-biS-WwoFlSjT-8" edge="1">
                    <mxGeometry relative="1" as="geometry"/>
                </mxCell>
                <mxCell id="RuSEpNv-biS-WwoFlSjT-10" value="17" style="ellipse;whiteSpace=wrap;html=1;fontFamily=Times New Roman;fontSize=19;container=0;" parent="RuSEpNv-biS-WwoFlSjT-27" vertex="1">
                    <mxGeometry x="60" y="100" width="40" height="40" as="geometry"/>
                </mxCell>
                <mxCell id="RuSEpNv-biS-WwoFlSjT-11" style="edgeStyle=none;html=1;fontFamily=Times New Roman;fontSize=19;endArrow=none;endFill=0;rounded=0;" parent="RuSEpNv-biS-WwoFlSjT-27" source="RuSEpNv-biS-WwoFlSjT-4" target="RuSEpNv-biS-WwoFlSjT-10" edge="1">
                    <mxGeometry relative="1" as="geometry"/>
                </mxCell>
                <mxCell id="RuSEpNv-biS-WwoFlSjT-13" value="26" style="ellipse;whiteSpace=wrap;html=1;fontFamily=Times New Roman;fontSize=19;container=0;" parent="RuSEpNv-biS-WwoFlSjT-27" vertex="1">
                    <mxGeometry x="120" y="100" width="40" height="40" as="geometry"/>
                </mxCell>
                <mxCell id="RuSEpNv-biS-WwoFlSjT-14" style="edgeStyle=none;html=1;fontFamily=Times New Roman;fontSize=19;endArrow=none;endFill=0;rounded=0;" parent="RuSEpNv-biS-WwoFlSjT-27" source="RuSEpNv-biS-WwoFlSjT-6" target="RuSEpNv-biS-WwoFlSjT-13" edge="1">
                    <mxGeometry relative="1" as="geometry"/>
                </mxCell>
                <mxCell id="RuSEpNv-biS-WwoFlSjT-15" value="31" style="ellipse;whiteSpace=wrap;html=1;fontFamily=Times New Roman;fontSize=19;container=0;" parent="RuSEpNv-biS-WwoFlSjT-27" vertex="1">
                    <mxGeometry x="180" y="100" width="40" height="40" as="geometry"/>
                </mxCell>
                <mxCell id="RuSEpNv-biS-WwoFlSjT-16" style="edgeStyle=none;html=1;fontFamily=Times New Roman;fontSize=19;endArrow=none;endFill=0;rounded=0;" parent="RuSEpNv-biS-WwoFlSjT-27" source="RuSEpNv-biS-WwoFlSjT-6" target="RuSEpNv-biS-WwoFlSjT-15" edge="1">
                    <mxGeometry relative="1" as="geometry"/>
                </mxCell>
                <mxCell id="RuSEpNv-biS-WwoFlSjT-20" value="24" style="ellipse;whiteSpace=wrap;html=1;fontFamily=Times New Roman;fontSize=19;container=0;" parent="RuSEpNv-biS-WwoFlSjT-27" vertex="1">
                    <mxGeometry x="96.00000000000011" y="150.00000000000023" width="40" height="40" as="geometry"/>
                </mxCell>
                <mxCell id="RuSEpNv-biS-WwoFlSjT-23" style="rounded=0;orthogonalLoop=1;jettySize=auto;html=1;exitX=0;exitY=1;exitDx=0;exitDy=0;endArrow=none;endFill=0;" parent="RuSEpNv-biS-WwoFlSjT-27" source="RuSEpNv-biS-WwoFlSjT-13" target="RuSEpNv-biS-WwoFlSjT-20" edge="1">
                    <mxGeometry relative="1" as="geometry"/>
                </mxCell>
                <mxCell id="RuSEpNv-biS-WwoFlSjT-21" value="27" style="ellipse;whiteSpace=wrap;html=1;fontFamily=Times New Roman;fontSize=19;container=0;" parent="RuSEpNv-biS-WwoFlSjT-27" vertex="1">
                    <mxGeometry x="144.0000000000001" y="150.00000000000023" width="40" height="40" as="geometry"/>
                </mxCell>
                <mxCell id="RuSEpNv-biS-WwoFlSjT-25" style="edgeStyle=none;shape=connector;rounded=0;orthogonalLoop=1;jettySize=auto;html=1;exitX=1;exitY=1;exitDx=0;exitDy=0;labelBackgroundColor=default;strokeColor=default;align=center;verticalAlign=middle;fontFamily=Helvetica;fontSize=11;fontColor=default;endArrow=none;endFill=0;" parent="RuSEpNv-biS-WwoFlSjT-27" source="RuSEpNv-biS-WwoFlSjT-13" target="RuSEpNv-biS-WwoFlSjT-21" edge="1">
                    <mxGeometry relative="1" as="geometry"/>
                </mxCell>
                <mxCell id="RuSEpNv-biS-WwoFlSjT-29" value="&lt;font face=&quot;Times New Roman&quot;&gt;&lt;span style=&quot;font-size: 12px;&quot;&gt;0&lt;/span&gt;&lt;/font&gt;" style="text;html=1;strokeColor=none;fillColor=none;align=center;verticalAlign=middle;whiteSpace=wrap;rounded=0;fontSize=11;fontFamily=Helvetica;fontColor=default;" parent="RuSEpNv-biS-WwoFlSjT-27" vertex="1">
                    <mxGeometry x="30.000000000000114" y="30.000000000000227" width="40" height="20" as="geometry"/>
                </mxCell>
                <mxCell id="RuSEpNv-biS-WwoFlSjT-51" value="&lt;font face=&quot;Times New Roman&quot;&gt;&lt;span style=&quot;font-size: 12px;&quot;&gt;0&lt;/span&gt;&lt;/font&gt;" style="text;html=1;strokeColor=none;fillColor=none;align=center;verticalAlign=middle;whiteSpace=wrap;rounded=0;fontSize=11;fontFamily=Helvetica;fontColor=default;" parent="RuSEpNv-biS-WwoFlSjT-27" vertex="1">
                    <mxGeometry x="150.0000000000001" y="30.000000000000227" width="40" height="20" as="geometry"/>
                </mxCell>
                <mxCell id="RuSEpNv-biS-WwoFlSjT-52" value="&lt;font face=&quot;Times New Roman&quot;&gt;&lt;span style=&quot;font-size: 12px;&quot;&gt;0&lt;/span&gt;&lt;/font&gt;" style="text;html=1;strokeColor=none;fillColor=none;align=center;verticalAlign=middle;whiteSpace=wrap;rounded=0;fontSize=11;fontFamily=Helvetica;fontColor=default;" parent="RuSEpNv-biS-WwoFlSjT-27" vertex="1">
                    <mxGeometry x="1.1368683772161603e-13" y="80.00000000000023" width="40" height="20" as="geometry"/>
                </mxCell>
                <mxCell id="RuSEpNv-biS-WwoFlSjT-53" value="&lt;font face=&quot;Times New Roman&quot;&gt;&lt;span style=&quot;font-size: 12px;&quot;&gt;0&lt;/span&gt;&lt;/font&gt;" style="text;html=1;strokeColor=none;fillColor=none;align=center;verticalAlign=middle;whiteSpace=wrap;rounded=0;fontSize=11;fontFamily=Helvetica;fontColor=default;" parent="RuSEpNv-biS-WwoFlSjT-27" vertex="1">
                    <mxGeometry x="60.000000000000114" y="80.00000000000023" width="40" height="20" as="geometry"/>
                </mxCell>
                <mxCell id="RuSEpNv-biS-WwoFlSjT-78" value="&lt;font face=&quot;Times New Roman&quot;&gt;&lt;span style=&quot;font-size: 12px;&quot;&gt;0&lt;/span&gt;&lt;/font&gt;" style="text;html=1;strokeColor=none;fillColor=none;align=center;verticalAlign=middle;whiteSpace=wrap;rounded=0;fontSize=11;fontFamily=Helvetica;fontColor=default;" parent="RuSEpNv-biS-WwoFlSjT-27" vertex="1">
                    <mxGeometry x="120.00000000000011" y="80.00000000000023" width="40" height="20" as="geometry"/>
                </mxCell>
                <mxCell id="RuSEpNv-biS-WwoFlSjT-104" value="&lt;font face=&quot;Times New Roman&quot;&gt;&lt;span style=&quot;font-size: 12px;&quot;&gt;-1&lt;/span&gt;&lt;/font&gt;" style="text;html=1;strokeColor=none;fillColor=none;align=center;verticalAlign=middle;whiteSpace=wrap;rounded=0;fontSize=11;fontFamily=Helvetica;fontColor=default;" parent="RuSEpNv-biS-WwoFlSjT-27" vertex="1">
                    <mxGeometry x="180.0000000000001" y="80.00000000000023" width="40" height="20" as="geometry"/>
                </mxCell>
                <mxCell id="RuSEpNv-biS-WwoFlSjT-105" value="&lt;font face=&quot;Times New Roman&quot;&gt;&lt;span style=&quot;font-size: 12px;&quot;&gt;0&lt;/span&gt;&lt;/font&gt;" style="text;html=1;strokeColor=none;fillColor=none;align=center;verticalAlign=middle;whiteSpace=wrap;rounded=0;fontSize=11;fontFamily=Helvetica;fontColor=default;" parent="RuSEpNv-biS-WwoFlSjT-27" vertex="1">
                    <mxGeometry x="96.00000000000011" y="130.00000000000023" width="40" height="20" as="geometry"/>
                </mxCell>
                <mxCell id="RuSEpNv-biS-WwoFlSjT-106" value="&lt;font face=&quot;Times New Roman&quot;&gt;&lt;span style=&quot;font-size: 12px;&quot;&gt;0&lt;/span&gt;&lt;/font&gt;" style="text;html=1;strokeColor=none;fillColor=none;align=center;verticalAlign=middle;whiteSpace=wrap;rounded=0;fontSize=11;fontFamily=Helvetica;fontColor=default;" parent="RuSEpNv-biS-WwoFlSjT-27" vertex="1">
                    <mxGeometry x="144.0000000000001" y="130.00000000000023" width="40" height="20" as="geometry"/>
                </mxCell>
                <mxCell id="RuSEpNv-biS-WwoFlSjT-107" value="&lt;font face=&quot;Times New Roman&quot;&gt;&lt;span style=&quot;font-size: 12px;&quot;&gt;0&lt;/span&gt;&lt;/font&gt;" style="text;html=1;strokeColor=none;fillColor=none;align=center;verticalAlign=middle;whiteSpace=wrap;rounded=0;fontSize=11;fontFamily=Helvetica;fontColor=default;" parent="RuSEpNv-biS-WwoFlSjT-27" vertex="1">
                    <mxGeometry x="207.0000000000001" y="130.00000000000023" width="40" height="20" as="geometry"/>
                </mxCell>
                <mxCell id="RuSEpNv-biS-WwoFlSjT-28" value="&lt;font style=&quot;font-size: 12px;&quot; face=&quot;Times New Roman&quot;&gt;-1&lt;/font&gt;" style="text;html=1;strokeColor=none;fillColor=none;align=center;verticalAlign=middle;whiteSpace=wrap;rounded=0;fontSize=11;fontFamily=Helvetica;fontColor=default;" parent="1" vertex="1">
                    <mxGeometry x="374" y="210" width="40" height="20" as="geometry"/>
                </mxCell>
                <mxCell id="RuSEpNv-biS-WwoFlSjT-108" value="&lt;span style=&quot;font-size: 19px;&quot;&gt;(a)&lt;/span&gt;" style="text;html=1;strokeColor=none;fillColor=none;align=center;verticalAlign=middle;whiteSpace=wrap;rounded=0;fontSize=19;fontFamily=Times New Roman;fontColor=default;" parent="1" vertex="1">
                    <mxGeometry x="364" y="430" width="60" height="30" as="geometry"/>
                </mxCell>
                <mxCell id="RuSEpNv-biS-WwoFlSjT-140" value="" style="group" parent="1" vertex="1" connectable="0">
                    <mxGeometry x="619.9999999999999" y="229.99999999999977" width="247.0000000000001" height="190.00000000000023" as="geometry"/>
                </mxCell>
                <mxCell id="RuSEpNv-biS-WwoFlSjT-141" value="35" style="ellipse;whiteSpace=wrap;html=1;fontFamily=Times New Roman;fontSize=19;container=0;" parent="RuSEpNv-biS-WwoFlSjT-140" vertex="1">
                    <mxGeometry x="207.0000000000001" y="150.00000000000023" width="40" height="40" as="geometry"/>
                </mxCell>
                <mxCell id="RuSEpNv-biS-WwoFlSjT-142" style="edgeStyle=none;shape=connector;rounded=0;orthogonalLoop=1;jettySize=auto;html=1;exitX=1;exitY=1;exitDx=0;exitDy=0;labelBackgroundColor=default;strokeColor=default;align=center;verticalAlign=middle;fontFamily=Helvetica;fontSize=11;fontColor=default;endArrow=none;endFill=0;" parent="RuSEpNv-biS-WwoFlSjT-140" source="RuSEpNv-biS-WwoFlSjT-154" target="RuSEpNv-biS-WwoFlSjT-141" edge="1">
                    <mxGeometry relative="1" as="geometry"/>
                </mxCell>
                <mxCell id="RuSEpNv-biS-WwoFlSjT-143" value="18" style="ellipse;whiteSpace=wrap;html=1;fontFamily=Times New Roman;fontSize=19;container=0;" parent="RuSEpNv-biS-WwoFlSjT-140" vertex="1">
                    <mxGeometry x="90" width="40" height="40" as="geometry"/>
                </mxCell>
                <mxCell id="RuSEpNv-biS-WwoFlSjT-144" value="12" style="ellipse;whiteSpace=wrap;html=1;fontFamily=Times New Roman;fontSize=19;container=0;" parent="RuSEpNv-biS-WwoFlSjT-140" vertex="1">
                    <mxGeometry x="30" y="50" width="40" height="40" as="geometry"/>
                </mxCell>
                <mxCell id="RuSEpNv-biS-WwoFlSjT-145" style="edgeStyle=none;html=1;fontFamily=Times New Roman;fontSize=19;endArrow=none;endFill=0;rounded=0;" parent="RuSEpNv-biS-WwoFlSjT-140" source="RuSEpNv-biS-WwoFlSjT-143" target="RuSEpNv-biS-WwoFlSjT-144" edge="1">
                    <mxGeometry relative="1" as="geometry"/>
                </mxCell>
                <mxCell id="RuSEpNv-biS-WwoFlSjT-146" value="29" style="ellipse;whiteSpace=wrap;html=1;fontFamily=Times New Roman;fontSize=19;container=0;" parent="RuSEpNv-biS-WwoFlSjT-140" vertex="1">
                    <mxGeometry x="150" y="50" width="40" height="40" as="geometry"/>
                </mxCell>
                <mxCell id="RuSEpNv-biS-WwoFlSjT-147" style="edgeStyle=none;html=1;fontFamily=Times New Roman;fontSize=19;endArrow=none;endFill=0;rounded=0;" parent="RuSEpNv-biS-WwoFlSjT-140" source="RuSEpNv-biS-WwoFlSjT-143" target="RuSEpNv-biS-WwoFlSjT-146" edge="1">
                    <mxGeometry relative="1" as="geometry"/>
                </mxCell>
                <mxCell id="RuSEpNv-biS-WwoFlSjT-173" style="edgeStyle=none;shape=connector;rounded=0;orthogonalLoop=1;jettySize=auto;html=1;exitX=0;exitY=1;exitDx=0;exitDy=0;labelBackgroundColor=default;strokeColor=default;align=center;verticalAlign=middle;fontFamily=Helvetica;fontSize=11;fontColor=default;endArrow=none;endFill=0;" parent="RuSEpNv-biS-WwoFlSjT-140" source="RuSEpNv-biS-WwoFlSjT-148" target="RuSEpNv-biS-WwoFlSjT-171" edge="1">
                    <mxGeometry relative="1" as="geometry"/>
                </mxCell>
                <mxCell id="RuSEpNv-biS-WwoFlSjT-148" value="6" style="ellipse;whiteSpace=wrap;html=1;fontFamily=Times New Roman;fontSize=19;container=0;" parent="RuSEpNv-biS-WwoFlSjT-140" vertex="1">
                    <mxGeometry y="100" width="40" height="40" as="geometry"/>
                </mxCell>
                <mxCell id="RuSEpNv-biS-WwoFlSjT-149" style="edgeStyle=none;html=1;fontFamily=Times New Roman;fontSize=19;endArrow=none;endFill=0;rounded=0;" parent="RuSEpNv-biS-WwoFlSjT-140" source="RuSEpNv-biS-WwoFlSjT-144" target="RuSEpNv-biS-WwoFlSjT-148" edge="1">
                    <mxGeometry relative="1" as="geometry"/>
                </mxCell>
                <mxCell id="RuSEpNv-biS-WwoFlSjT-152" value="26" style="ellipse;whiteSpace=wrap;html=1;fontFamily=Times New Roman;fontSize=19;container=0;" parent="RuSEpNv-biS-WwoFlSjT-140" vertex="1">
                    <mxGeometry x="120" y="100" width="40" height="40" as="geometry"/>
                </mxCell>
                <mxCell id="RuSEpNv-biS-WwoFlSjT-153" style="edgeStyle=none;html=1;fontFamily=Times New Roman;fontSize=19;endArrow=none;endFill=0;rounded=0;" parent="RuSEpNv-biS-WwoFlSjT-140" source="RuSEpNv-biS-WwoFlSjT-146" target="RuSEpNv-biS-WwoFlSjT-152" edge="1">
                    <mxGeometry relative="1" as="geometry"/>
                </mxCell>
                <mxCell id="RuSEpNv-biS-WwoFlSjT-154" value="31" style="ellipse;whiteSpace=wrap;html=1;fontFamily=Times New Roman;fontSize=19;container=0;" parent="RuSEpNv-biS-WwoFlSjT-140" vertex="1">
                    <mxGeometry x="180" y="100" width="40" height="40" as="geometry"/>
                </mxCell>
                <mxCell id="RuSEpNv-biS-WwoFlSjT-155" style="edgeStyle=none;html=1;fontFamily=Times New Roman;fontSize=19;endArrow=none;endFill=0;rounded=0;" parent="RuSEpNv-biS-WwoFlSjT-140" source="RuSEpNv-biS-WwoFlSjT-146" target="RuSEpNv-biS-WwoFlSjT-154" edge="1">
                    <mxGeometry relative="1" as="geometry"/>
                </mxCell>
                <mxCell id="RuSEpNv-biS-WwoFlSjT-156" value="24" style="ellipse;whiteSpace=wrap;html=1;fontFamily=Times New Roman;fontSize=19;container=0;" parent="RuSEpNv-biS-WwoFlSjT-140" vertex="1">
                    <mxGeometry x="96.00000000000011" y="150.00000000000023" width="40" height="40" as="geometry"/>
                </mxCell>
                <mxCell id="RuSEpNv-biS-WwoFlSjT-157" style="rounded=0;orthogonalLoop=1;jettySize=auto;html=1;exitX=0;exitY=1;exitDx=0;exitDy=0;endArrow=none;endFill=0;" parent="RuSEpNv-biS-WwoFlSjT-140" source="RuSEpNv-biS-WwoFlSjT-152" target="RuSEpNv-biS-WwoFlSjT-156" edge="1">
                    <mxGeometry relative="1" as="geometry"/>
                </mxCell>
                <mxCell id="RuSEpNv-biS-WwoFlSjT-158" value="27" style="ellipse;whiteSpace=wrap;html=1;fontFamily=Times New Roman;fontSize=19;container=0;" parent="RuSEpNv-biS-WwoFlSjT-140" vertex="1">
                    <mxGeometry x="144.0000000000001" y="150.00000000000023" width="40" height="40" as="geometry"/>
                </mxCell>
                <mxCell id="RuSEpNv-biS-WwoFlSjT-159" style="edgeStyle=none;shape=connector;rounded=0;orthogonalLoop=1;jettySize=auto;html=1;exitX=1;exitY=1;exitDx=0;exitDy=0;labelBackgroundColor=default;strokeColor=default;align=center;verticalAlign=middle;fontFamily=Helvetica;fontSize=11;fontColor=default;endArrow=none;endFill=0;" parent="RuSEpNv-biS-WwoFlSjT-140" source="RuSEpNv-biS-WwoFlSjT-152" target="RuSEpNv-biS-WwoFlSjT-158" edge="1">
                    <mxGeometry relative="1" as="geometry"/>
                </mxCell>
                <mxCell id="RuSEpNv-biS-WwoFlSjT-160" value="&lt;font face=&quot;Times New Roman&quot;&gt;&lt;span style=&quot;font-size: 12px;&quot;&gt;+2&lt;/span&gt;&lt;/font&gt;" style="text;html=1;strokeColor=none;fillColor=none;align=center;verticalAlign=middle;whiteSpace=wrap;rounded=0;fontSize=11;fontFamily=Helvetica;fontColor=default;" parent="RuSEpNv-biS-WwoFlSjT-140" vertex="1">
                    <mxGeometry x="30.000000000000114" y="30.000000000000227" width="40" height="20" as="geometry"/>
                </mxCell>
                <mxCell id="RuSEpNv-biS-WwoFlSjT-161" value="&lt;font face=&quot;Times New Roman&quot;&gt;&lt;span style=&quot;font-size: 12px;&quot;&gt;0&lt;/span&gt;&lt;/font&gt;" style="text;html=1;strokeColor=none;fillColor=none;align=center;verticalAlign=middle;whiteSpace=wrap;rounded=0;fontSize=11;fontFamily=Helvetica;fontColor=default;" parent="RuSEpNv-biS-WwoFlSjT-140" vertex="1">
                    <mxGeometry x="150.0000000000001" y="30.000000000000227" width="40" height="20" as="geometry"/>
                </mxCell>
                <mxCell id="RuSEpNv-biS-WwoFlSjT-162" value="&lt;font face=&quot;Times New Roman&quot;&gt;&lt;span style=&quot;font-size: 12px;&quot;&gt;0&lt;/span&gt;&lt;/font&gt;" style="text;html=1;strokeColor=none;fillColor=none;align=center;verticalAlign=middle;whiteSpace=wrap;rounded=0;fontSize=11;fontFamily=Helvetica;fontColor=default;" parent="RuSEpNv-biS-WwoFlSjT-140" vertex="1">
                    <mxGeometry x="-25.999999999999886" y="130.00000000000023" width="40" height="20" as="geometry"/>
                </mxCell>
                <mxCell id="RuSEpNv-biS-WwoFlSjT-164" value="&lt;font face=&quot;Times New Roman&quot;&gt;&lt;span style=&quot;font-size: 12px;&quot;&gt;0&lt;/span&gt;&lt;/font&gt;" style="text;html=1;strokeColor=none;fillColor=none;align=center;verticalAlign=middle;whiteSpace=wrap;rounded=0;fontSize=11;fontFamily=Helvetica;fontColor=default;" parent="RuSEpNv-biS-WwoFlSjT-140" vertex="1">
                    <mxGeometry x="120.00000000000011" y="80.00000000000023" width="40" height="20" as="geometry"/>
                </mxCell>
                <mxCell id="RuSEpNv-biS-WwoFlSjT-165" value="&lt;font face=&quot;Times New Roman&quot;&gt;&lt;span style=&quot;font-size: 12px;&quot;&gt;-1&lt;/span&gt;&lt;/font&gt;" style="text;html=1;strokeColor=none;fillColor=none;align=center;verticalAlign=middle;whiteSpace=wrap;rounded=0;fontSize=11;fontFamily=Helvetica;fontColor=default;" parent="RuSEpNv-biS-WwoFlSjT-140" vertex="1">
                    <mxGeometry x="180.0000000000001" y="80.00000000000023" width="40" height="20" as="geometry"/>
                </mxCell>
                <mxCell id="RuSEpNv-biS-WwoFlSjT-166" value="&lt;font face=&quot;Times New Roman&quot;&gt;&lt;span style=&quot;font-size: 12px;&quot;&gt;0&lt;/span&gt;&lt;/font&gt;" style="text;html=1;strokeColor=none;fillColor=none;align=center;verticalAlign=middle;whiteSpace=wrap;rounded=0;fontSize=11;fontFamily=Helvetica;fontColor=default;" parent="RuSEpNv-biS-WwoFlSjT-140" vertex="1">
                    <mxGeometry x="96.00000000000011" y="130.00000000000023" width="40" height="20" as="geometry"/>
                </mxCell>
                <mxCell id="RuSEpNv-biS-WwoFlSjT-167" value="&lt;font face=&quot;Times New Roman&quot;&gt;&lt;span style=&quot;font-size: 12px;&quot;&gt;0&lt;/span&gt;&lt;/font&gt;" style="text;html=1;strokeColor=none;fillColor=none;align=center;verticalAlign=middle;whiteSpace=wrap;rounded=0;fontSize=11;fontFamily=Helvetica;fontColor=default;" parent="RuSEpNv-biS-WwoFlSjT-140" vertex="1">
                    <mxGeometry x="144.0000000000001" y="130.00000000000023" width="40" height="20" as="geometry"/>
                </mxCell>
                <mxCell id="RuSEpNv-biS-WwoFlSjT-168" value="&lt;font face=&quot;Times New Roman&quot;&gt;&lt;span style=&quot;font-size: 12px;&quot;&gt;0&lt;/span&gt;&lt;/font&gt;" style="text;html=1;strokeColor=none;fillColor=none;align=center;verticalAlign=middle;whiteSpace=wrap;rounded=0;fontSize=11;fontFamily=Helvetica;fontColor=default;" parent="RuSEpNv-biS-WwoFlSjT-140" vertex="1">
                    <mxGeometry x="207.0000000000001" y="130.00000000000023" width="40" height="20" as="geometry"/>
                </mxCell>
                <mxCell id="RuSEpNv-biS-WwoFlSjT-171" value="3" style="ellipse;whiteSpace=wrap;html=1;fontFamily=Times New Roman;fontSize=19;fontColor=default;" parent="RuSEpNv-biS-WwoFlSjT-140" vertex="1">
                    <mxGeometry x="-25.999999999999886" y="150.00000000000023" width="40" height="40" as="geometry"/>
                </mxCell>
                <mxCell id="RuSEpNv-biS-WwoFlSjT-205" value="&lt;font face=&quot;Times New Roman&quot;&gt;&lt;span style=&quot;font-size: 12px;&quot;&gt;+1&lt;/span&gt;&lt;/font&gt;" style="text;html=1;strokeColor=none;fillColor=none;align=center;verticalAlign=middle;whiteSpace=wrap;rounded=0;fontSize=11;fontFamily=Helvetica;fontColor=default;" parent="RuSEpNv-biS-WwoFlSjT-140" vertex="1">
                    <mxGeometry x="1.1368683772161603e-13" y="80.00000000000023" width="40" height="20" as="geometry"/>
                </mxCell>
                <mxCell id="RuSEpNv-biS-WwoFlSjT-169" value="&lt;font face=&quot;Times New Roman&quot;&gt;&lt;span style=&quot;font-size: 12px;&quot;&gt;0&lt;/span&gt;&lt;/font&gt;" style="text;html=1;strokeColor=none;fillColor=none;align=center;verticalAlign=middle;whiteSpace=wrap;rounded=0;fontSize=11;fontFamily=Helvetica;fontColor=default;" parent="1" vertex="1">
                    <mxGeometry x="711" y="210" width="40" height="20" as="geometry"/>
                </mxCell>
                <mxCell id="RuSEpNv-biS-WwoFlSjT-170" value="&lt;span style=&quot;font-size: 19px;&quot;&gt;(b)&lt;/span&gt;" style="text;html=1;strokeColor=none;fillColor=none;align=center;verticalAlign=middle;whiteSpace=wrap;rounded=0;fontSize=19;fontFamily=Times New Roman;fontColor=default;" parent="1" vertex="1">
                    <mxGeometry x="701" y="430" width="60" height="30" as="geometry"/>
                </mxCell>
            </root>
        </mxGraphModel>
    </diagram>
</mxfile>